<svg width="141" height="148" viewBox="0 0 141 148" fill="none" xmlns="http://www.w3.org/2000/svg">
<path d="M9.08887 105.699L4.55762 104.708C3.1888 104.566 2.05599 103.693 1.15918 102.088C0.923177 101.664 0.781576 101.404 0.734375 101.31C0.639974 101.215 0.592773 101.097 0.592773 100.956C0.592773 100.814 0.639974 100.625 0.734375 100.389C0.828776 100.106 0.970378 99.752 1.15918 99.3271C1.34798 98.8551 1.51318 98.3831 1.65479 97.9111C2.646 94.5599 10.9297 78.7949 26.5059 50.6162C42.082 22.4375 50.2241 7.92334 50.9321 7.07373C51.6873 6.17692 52.2301 5.53971 52.5605 5.16211C52.9382 4.7373 53.3394 4.3833 53.7642 4.1001C54.2362 3.81689 54.5666 3.62809 54.7554 3.53369C54.9914 3.43929 55.4162 3.29769 56.0298 3.10889C56.6906 2.87288 57.3514 2.63688 58.0122 2.40088C58.7202 2.16488 59.4518 1.85807 60.207 1.48047C60.9622 1.05566 61.4814 0.772461 61.7646 0.630859C62.0479 0.442057 62.4019 0.347656 62.8267 0.347656C63.2987 0.347656 63.7235 0.560059 64.1011 0.984863C64.5259 1.40967 64.7383 1.95247 64.7383 2.61328V3.10889C64.5023 4.0057 58.3426 15.1922 46.2593 36.6685C34.2231 58.1447 27.6623 69.8976 26.5767 71.9272C30.2583 70.464 35.6864 66.8532 42.8608 61.0947C50.0353 55.3363 53.6462 51.513 53.6934 49.625C53.7878 47.737 54.4486 46.3682 55.6758 45.5186C56.903 44.6689 58.2246 44.2441 59.6406 44.2441C61.1038 44.2441 62.3311 44.7397 63.3223 45.731C64.3607 46.675 64.8563 48.2562 64.8091 50.4746C64.7619 52.6458 63.5347 55.4307 61.1274 58.8291C58.7202 62.1803 55.841 65.2956 52.4897 68.1748C45.2681 74.3109 39.25 78.3701 34.4355 80.3525C38.2588 90.6895 42.6484 95.8579 47.6045 95.8579C50.2949 95.4803 53.599 93.2855 57.5166 89.2734C58.9798 87.8102 60.3958 86.347 61.7646 84.8838C63.1335 83.3734 63.9595 82.4766 64.2427 82.1934C64.5731 81.9102 65.0215 81.7686 65.5879 81.7686C66.4847 81.7686 67.0275 82.453 67.2163 83.8218C67.4051 85.1906 67.4995 86.6066 67.4995 88.0698C67.4995 89.533 67.3579 90.5479 67.0747 91.1143C65.7059 93.7575 62.7087 96.9907 58.083 100.814C53.4574 104.59 49.0677 106.478 44.9141 106.478C41.9404 106.478 39.5804 105.912 37.834 104.779C36.0876 103.646 34.7188 102.702 33.7275 101.947C32.7363 101.192 31.7215 100.177 30.6831 98.9023C29.6447 97.5807 28.7715 96.4951 28.0635 95.6455C27.4027 94.7959 26.6239 93.6159 25.7271 92.1055C24.8774 90.5951 24.2638 89.533 23.8862 88.9194C23.5086 88.2586 22.9422 87.2202 22.187 85.8042C21.479 84.341 21.0778 83.5386 20.9834 83.397C20.1338 85.1434 19.1898 87.0314 18.1514 89.061C17.113 91.0907 16.1689 92.9787 15.3193 94.7251C14.4697 96.4715 13.6909 98.0763 12.9829 99.5396C12.2749 100.956 11.6849 102.136 11.2129 103.08C10.7881 104.024 10.5521 104.519 10.5049 104.566C10.1745 105.322 9.70247 105.699 9.08887 105.699ZM100.776 28.668L102.05 28.5264C102.758 28.5264 103.325 29.14 103.75 30.3672C104.174 31.5944 104.387 32.4204 104.387 32.8452C104.387 33.27 103.915 34.0724 102.971 35.2524L82.7925 65.98C89.8726 58.8999 97.0706 53.7314 104.387 50.4746C107.219 49.2474 109.768 48.6338 112.033 48.6338C114.346 48.6338 116.187 49.389 117.556 50.8994C118.972 52.3626 119.68 54.2035 119.68 56.4219C119.68 58.6403 119.066 61.3779 117.839 64.6348C116.612 67.8916 114.936 71.3608 112.812 75.0425C110.735 78.7241 108.186 82.4294 105.166 86.1582C102.192 89.887 99.0531 93.2619 95.749 96.2827C92.4922 99.3035 88.9285 101.758 85.0581 103.646C81.1877 105.534 77.7892 106.478 74.8628 106.478C68.9627 106.478 66.0127 103.764 66.0127 98.3359C60.4902 106.785 54.1182 116.791 46.8965 128.355C39.6748 139.92 35.8044 146.032 35.2852 146.693C34.766 147.354 34.3411 147.684 34.0107 147.684C33.6331 147.684 33.0903 147.472 32.3823 147.047C31.6271 146.622 30.8483 145.914 30.0459 144.923C29.2435 143.932 28.8423 142.492 28.8423 140.604C28.7951 138.716 29.3379 136.804 30.4707 134.869C36.8428 124.249 49.1149 104.283 67.2871 74.9717C85.5065 45.613 95.3714 30.438 96.8818 29.4468C97.7314 28.8804 98.5811 28.5972 99.4307 28.5972L100.776 28.668ZM107.006 61.2363C107.006 60.2451 106.534 59.7495 105.59 59.7495C103.042 59.7495 97.637 63.6672 89.377 71.5024C81.1641 79.3377 74.6268 86.4886 69.7651 92.9551C70.9924 94.4655 72.8096 95.2207 75.2168 95.2207C77.624 95.2207 80.7393 93.9227 84.5625 91.3267C88.3857 88.7306 91.9258 85.6626 95.1826 82.1226C98.4395 78.5353 101.224 74.7829 103.537 70.8652C105.85 66.9476 107.006 63.738 107.006 61.2363ZM124.353 103.292C124.353 100.413 125.485 97.8639 127.751 95.6455C130.017 93.3799 132.235 92.2471 134.406 92.2471C138.324 92.2471 140.283 93.8519 140.283 97.0615C140.283 99.7048 139.174 102.254 136.955 104.708C134.737 107.21 132.235 108.46 129.45 108.46C126.052 108.46 124.353 106.738 124.353 103.292Z" fill="black"/>
</svg>
