<svg width="1200" height="222" viewBox="0 0 1200 222" fill="none" xmlns="http://www.w3.org/2000/svg">
<path fill-rule="evenodd" clip-rule="evenodd" d="M0 205.708L33 186.661C67 167.614 133 129.52 200 133.329C267 137.138 333 182.851 400 205.708C467 228.564 533 228.564 600 198.089C667 167.614 733 106.663 800 99.0444C867 91.4256 933 137.138 1000 137.138C1067 137.138 1133 91.4256 1167 68.5692L1200 45.7128V0H1167C1133 0 1067 0 1000 0C933 0 867 0 800 0C733 0 667 0 600 0C533 0 467 0 400 0C333 0 267 0 200 0C133 0 67 0 33 0H0V205.708Z" fill="#857671"/>
</svg>
